<svg width="40" height="44" viewBox="0 0 40 44" fill="none" xmlns="http://www.w3.org/2000/svg">
<path d="M37.886 31.67C36.7898 25.127 33.6571 19.0968 28.934 14.438C27.9 13.432 27.384 12.93 26.242 12.466C25.1 12 24.118 12 22.156 12H17.844C15.882 12 14.9 12 13.758 12.466C12.618 12.93 12.098 13.432 11.066 14.438C6.34287 19.0968 3.21016 25.127 2.11396 31.67C1.13996 37.546 6.55996 42 12.616 42H27.384C33.442 42 38.864 37.546 37.884 31.67" stroke="#BEC1D3" stroke-width="3" stroke-linecap="round" stroke-linejoin="round"/>
<path d="M23.2544 23.838C22.8224 22.24 20.6204 20.8 17.9784 21.878C15.3364 22.956 14.9184 26.422 18.9124 26.792C20.7204 26.958 21.8964 26.598 22.9744 27.616C24.0544 28.632 24.2544 31.462 21.4964 32.224C18.7424 32.986 16.0124 31.796 15.7164 30.104M19.6844 19.984V21.506M19.6844 32.458V33.986M10.5144 6.886C10.1004 6.286 9.50236 5.47 10.7384 5.286C12.0084 5.094 13.3264 5.962 14.6184 5.946C15.7844 5.928 16.3784 5.41 17.0184 4.67C17.6904 3.892 18.7304 2 20.0004 2C21.2704 2 22.3104 3.892 22.9824 4.67C23.6224 5.41 24.2164 5.93 25.3824 5.944C26.6744 5.964 27.9924 5.094 29.2624 5.284C30.4984 5.47 29.9004 6.284 29.4864 6.884L27.6224 9.602C26.8224 10.762 26.4244 11.342 25.5884 11.672C24.7524 12.002 23.6744 12 21.5164 12H18.4844C16.3244 12 15.2464 12 14.4124 11.672C13.5784 11.344 13.1784 10.76 12.3784 9.6L10.5144 6.886Z" stroke="#BEC1D3" stroke-width="3" stroke-linecap="round" stroke-linejoin="round"/>
</svg>
