<svg width="40" height="41" viewBox="0 0 40 41" fill="none" xmlns="http://www.w3.org/2000/svg">
<path fill-rule="evenodd" clip-rule="evenodd" d="M0 20V12C0 6.344 -1.19209e-07 3.514 1.758 1.758C3.514 -1.19209e-07 6.344 0 12 0H28C33.656 0 36.486 -1.19209e-07 38.242 1.758C40 3.514 40 6.344 40 12V20C40 25.656 40 28.486 38.242 30.242C36.95 31.536 35.078 31.878 31.926 31.968C31.92 30.4525 31.3764 28.9883 30.392 27.836C30.3329 27.7694 30.2977 27.6849 30.292 27.596C30.1709 26.0746 29.5117 24.6461 28.4327 23.5667C27.3536 22.4873 25.9254 21.8277 24.404 21.706C24.3151 21.7003 24.2306 21.6651 24.164 21.606C23.0024 20.6161 21.5262 20.0725 20 20.0725C18.4738 20.0725 16.9976 20.6161 15.836 21.606C15.7694 21.6651 15.6849 21.7003 15.596 21.706C14.0743 21.8272 12.6455 22.4867 11.5661 23.5661C10.4867 24.6455 9.8272 26.0743 9.706 27.596C9.70032 27.6849 9.66513 27.7694 9.606 27.836C8.62229 28.9885 8.07942 30.4527 8.074 31.968C4.922 31.878 3.05 31.536 1.758 30.242C-1.19209e-07 28.486 0 25.656 0 20ZM12.5 8C12.5 7.60218 12.658 7.22064 12.9393 6.93934C13.2206 6.65804 13.6022 6.5 14 6.5H26C26.3978 6.5 26.7794 6.65804 27.0607 6.93934C27.342 7.22064 27.5 7.60218 27.5 8C27.5 8.39783 27.342 8.77936 27.0607 9.06066C26.7794 9.34197 26.3978 9.5 26 9.5H14C13.6022 9.5 13.2206 9.34197 12.9393 9.06066C12.658 8.77936 12.5 8.39783 12.5 8ZM10 13.5C9.60218 13.5 9.22064 13.658 8.93934 13.9393C8.65804 14.2206 8.5 14.6022 8.5 15C8.5 15.3978 8.65804 15.7794 8.93934 16.0607C9.22064 16.342 9.60218 16.5 10 16.5H30C30.3978 16.5 30.7794 16.342 31.0607 16.0607C31.342 15.7794 31.5 15.3978 31.5 15C31.5 14.6022 31.342 14.2206 31.0607 13.9393C30.7794 13.658 30.3978 13.5 30 13.5H10Z" fill="#BEC1D3"/>
<path fill-rule="evenodd" clip-rule="evenodd" d="M22.221 23.8907C21.6019 23.3625 20.8148 23.0723 20.001 23.0723C19.1872 23.0723 18.4 23.3625 17.781 23.8907C17.234 24.3586 16.5526 24.6408 15.835 24.6967C15.0239 24.7613 14.2624 25.1129 13.6873 25.6884C13.1121 26.2639 12.761 27.0256 12.697 27.8367C12.641 28.5527 12.357 29.2327 11.891 29.7827C11.3638 30.4015 11.0742 31.1878 11.0742 32.0007C11.0742 32.8136 11.3638 33.6 11.891 34.2187C12.359 34.7667 12.641 35.4487 12.697 36.1647C12.7611 36.9762 13.1125 37.7381 13.688 38.3137C14.2636 38.8892 15.0256 39.2406 15.837 39.3047C16.553 39.3607 17.235 39.6427 17.783 40.1087C18.4017 40.6359 19.1881 40.9255 20.001 40.9255C20.8139 40.9255 21.6002 40.6359 22.219 40.1087C22.766 39.6408 23.4473 39.3586 24.165 39.3027C24.9761 39.2387 25.7378 38.8876 26.3133 38.3124C26.8888 37.7373 27.2404 36.9758 27.305 36.1647C27.3603 35.4473 27.6418 34.766 28.109 34.2187C28.6367 33.5998 28.9266 32.8131 28.9266 31.9997C28.9266 31.1864 28.6367 30.3996 28.109 29.7807C27.6411 29.2337 27.3589 28.5524 27.303 27.8347C27.2385 27.024 26.8872 26.2627 26.3121 25.6876C25.737 25.1125 24.9757 24.7612 24.165 24.6967C23.4473 24.6408 22.768 24.3586 22.221 23.8907ZM24.023 31.0967C24.1691 30.9628 24.2872 30.8013 24.3705 30.6214C24.4539 30.4416 24.5007 30.247 24.5084 30.049C24.5161 29.851 24.4844 29.6533 24.4153 29.4676C24.3461 29.2819 24.2409 29.1117 24.1056 28.9668C23.9703 28.822 23.8076 28.7054 23.627 28.6239C23.4463 28.5423 23.2513 28.4973 23.0532 28.4915C22.8551 28.4857 22.6578 28.5193 22.4727 28.5902C22.2877 28.6611 22.1185 28.768 21.975 28.9047L18.715 31.9487L18.023 31.3047C17.7315 31.0376 17.3464 30.8964 16.9514 30.9117C16.5564 30.927 16.1834 31.0977 15.9135 31.3865C15.6436 31.6754 15.4986 32.0591 15.5101 32.4543C15.5217 32.8494 15.6887 33.2241 15.975 33.4967L17.689 35.0967C17.9668 35.3563 18.3328 35.5006 18.713 35.5006C19.0932 35.5006 19.4592 35.3563 19.737 35.0967L24.023 31.0967Z" fill="#BEC1D3"/>
</svg>
